<svg xmlns="http://www.w3.org/2000/svg" viewBox="0 0 64 64" role="img" aria-label="Family Task Board">
  <rect width="64" height="64" rx="16" fill="#1e7658"/>
  <path d="M14 30 32 15l18 15v19a4 4 0 0 1-4 4H18a4 4 0 0 1-4-4V30Z" fill="#fff7e8"/>
  <circle cx="25" cy="35" r="5" fill="#f2a66f"/>
  <circle cx="39" cy="35" r="5" fill="#9ed5e8"/>
  <path d="M18 49c1-7 4-10 7-10s6 3 7 10M32 49c1-7 4-10 7-10s6 3 7 10" fill="none" stroke="#1e7658" stroke-width="4" stroke-linecap="round"/>
  <path d="m42 16 2 4 4 1-4 2-2 4-2-4-4-2 4-1 2-4Z" fill="#f4b740"/>
</svg>
