<svg xmlns="http://www.w3.org/2000/svg" viewBox="0 0 64 64" width="64" height="64">
  <defs>
    <linearGradient id="kr-bg" x1="0" y1="0" x2="0" y2="1">
      <stop offset="0" stop-color="#2c3560"/>
      <stop offset="0.5" stop-color="#141a33"/>
      <stop offset="1" stop-color="#080b16"/>
    </linearGradient>
    <linearGradient id="kr-body" x1="0" y1="0" x2="0" y2="1">
      <stop offset="0" stop-color="#ffd27a"/>
      <stop offset="1" stop-color="#f0a23c"/>
    </linearGradient>
  </defs>
  <rect width="64" height="64" rx="14" fill="url(#kr-bg)"/>
  <!-- checkered flag stripe -->
  <g opacity="0.9">
    <rect x="8" y="12" width="6" height="6" fill="#f3f6fb"/>
    <rect x="20" y="12" width="6" height="6" fill="#f3f6fb"/>
    <rect x="32" y="12" width="6" height="6" fill="#f3f6fb"/>
    <rect x="44" y="12" width="6" height="6" fill="#f3f6fb"/>
    <rect x="14" y="18" width="6" height="6" fill="#f3f6fb"/>
    <rect x="26" y="18" width="6" height="6" fill="#f3f6fb"/>
    <rect x="38" y="18" width="6" height="6" fill="#f3f6fb"/>
    <rect x="50" y="18" width="6" height="6" fill="#f3f6fb"/>
  </g>
  <!-- kart silhouette -->
  <g>
    <path d="M14 40c0-3 2-5 5-5h7l4-6c1-1.6 2.6-2.5 4.4-2.5H42c2.8 0 5 2.2 5 5v3.5h2a3 3 0 0 1 3 3v4h-6.2a5.5 5.5 0 0 0-10.6 0H27.8a5.5 5.5 0 0 0-10.6 0H14v-2z" fill="url(#kr-body)"/>
    <circle cx="22.5" cy="42" r="4.5" fill="#0b0e1a"/>
    <circle cx="22.5" cy="42" r="1.8" fill="#6ad2ff"/>
    <circle cx="40.5" cy="42" r="4.5" fill="#0b0e1a"/>
    <circle cx="40.5" cy="42" r="1.8" fill="#6ad2ff"/>
  </g>
  <!-- speed lines -->
  <g stroke="#6ad2ff" stroke-width="2" stroke-linecap="round" opacity="0.85">
    <line x1="6" y1="30" x2="12" y2="30"/>
    <line x1="4" y1="35" x2="10" y2="35"/>
    <line x1="6" y1="46" x2="12" y2="46"/>
  </g>
</svg>
